<svg xmlns="http://www.w3.org/2000/svg" xmlns:xlink="http://www.w3.org/1999/xlink" width="800" zoomAndPan="magnify" viewBox="0 0 600 449.999984" height="600" preserveAspectRatio="xMidYMid meet" version="1.0"><defs><g/><clipPath id="id1"><path d="M 319.320312 60.992188 L 593.457031 60.992188 L 593.457031 389.492188 L 319.320312 389.492188 Z M 319.320312 60.992188 " clip-rule="nonzero"/></clipPath></defs><g clip-path="url(#id1)"><path fill="#f40018" d="M 529.285156 75.070312 C 490.585938 48.363281 468.871094 67.855469 468.871094 67.855469 C 468.871094 67.855469 460.679688 72.203125 456.691406 72.203125 C 456.601562 72.203125 456.691406 72.203125 456.386719 72.253906 C 456.195312 72.203125 456.285156 72.203125 456.195312 72.203125 C 452.203125 72.203125 443.984375 67.855469 443.984375 67.855469 C 443.984375 67.855469 422.195312 48.363281 383.5 75.070312 C 316.085938 120.910156 319.34375 220.726562 319.34375 220.726562 L 319.34375 220.882812 C 319.34375 220.882812 327.871094 389.523438 456.386719 389.523438 C 589.5625 389.523438 593.429688 220.882812 593.429688 220.882812 L 593.429688 220.726562 C 593.429688 220.726562 596.699219 120.910156 529.285156 75.070312 " fill-opacity="1" fill-rule="nonzero"/></g><path fill="#8f000f" d="M 525.605469 106.8125 C 488.859375 85.75 468.238281 96.339844 468.238281 96.339844 C 468.238281 96.339844 460.464844 98.96875 456.675781 98.96875 C 456.589844 98.96875 456.753906 98.855469 456.675781 98.96875 C 456.59375 98.855469 456.289062 98.96875 456.203125 98.96875 C 452.417969 98.96875 444.609375 96.339844 444.609375 96.339844 C 444.609375 96.339844 423.921875 85.75 387.179688 106.8125 C 323.164062 142.964844 326.257812 221.683594 326.257812 221.683594 L 326.261719 221.808594 C 326.261719 221.808594 334.359375 354.804688 456.386719 354.804688 C 582.839844 354.804688 586.511719 221.808594 586.511719 221.808594 L 586.511719 221.683594 C 586.511719 221.683594 589.617188 142.964844 525.605469 106.8125 " fill-opacity="1" fill-rule="nonzero"/><path fill="#38000f" d="M 533.71875 253.117188 C 533.71875 210.125 498.839844 175.273438 455.816406 175.273438 C 412.792969 175.273438 377.914062 210.125 377.914062 253.117188 C 377.914062 296.109375 412.792969 330.960938 455.816406 330.960938 C 498.839844 330.960938 533.71875 296.109375 533.71875 253.117188 " fill-opacity="1" fill-rule="nonzero"/><path fill="#8f000f" d="M 465.824219 178.929688 C 466.09375 177.589844 466.484375 176.160156 467.019531 174.644531 L 449.523438 174.644531 C 449.996094 175.984375 450.355469 177.257812 450.617188 178.460938 C 451.839844 184.121094 450.078125 189.941406 446.375 194.242188 C 443.597656 197.460938 442.007812 201.824219 442.316406 206.578125 C 442.851562 214.816406 449.242188 221.492188 457.074219 222.011719 C 466.273438 222.617188 473.90625 214.949219 473.90625 205.40625 C 473.90625 201.183594 472.410156 197.332031 469.945312 194.398438 C 466.375 190.152344 464.710938 184.476562 465.824219 178.929688 " fill-opacity="1" fill-rule="nonzero"/><path fill="#fb262b" d="M 459.347656 271.847656 C 454.53125 272.996094 450.339844 271.742188 450.339844 271.742188 C 379.558594 261.277344 357.78125 298.109375 357.78125 298.109375 L 354.105469 302.695312 C 372.902344 330.515625 404.238281 354.804688 456.386719 354.804688 C 508.59375 354.804688 539.871094 332.132812 558.605469 305.511719 C 557.746094 304.574219 556.777344 303.542969 555.675781 302.398438 C 528.976562 264.417969 464.160156 270.695312 459.347656 271.847656 " fill-opacity="1" fill-rule="nonzero"/><path fill="#ffffff" d="M 534.660156 303.058594 L 510.3125 302.890625 C 506.097656 302.859375 502.609375 307.117188 502.375 312.566406 L 501.125 342.117188 L 499.753906 311.089844 C 499.515625 305.695312 496.078125 301.464844 491.898438 301.4375 L 467.554688 301.273438 C 463.339844 301.242188 459.847656 305.5 459.617188 310.945312 L 458.445312 338.613281 L 457.230469 311.089844 C 456.992188 305.695312 453.550781 301.464844 449.375 301.4375 L 425.03125 301.273438 C 420.816406 301.242188 417.320312 305.5 417.089844 310.945312 L 415.796875 341.546875 L 414.519531 312.710938 C 414.285156 307.3125 410.84375 303.085938 406.667969 303.058594 L 382.320312 302.890625 C 378.105469 302.859375 374.617188 307.117188 374.382812 312.566406 L 373.835938 325.511719 C 392.839844 342.566406 419.367188 354.804688 456.386719 354.804688 C 496.175781 354.804688 523.808594 341.636719 542.992188 323.585938 L 542.515625 312.710938 C 542.277344 307.3125 538.835938 303.085938 534.660156 303.058594 " fill-opacity="1" fill-rule="nonzero"/><path fill="#ffffff" d="M 544.898438 314.589844 L 544.585938 322.058594 C 550.074219 316.6875 554.847656 310.917969 558.992188 304.957031 L 552.839844 304.914062 C 548.625 304.882812 545.128906 309.140625 544.898438 314.589844 " fill-opacity="1" fill-rule="nonzero"/><path fill="#ffffff" d="M 364.144531 304.675781 L 355.425781 304.617188 C 360.261719 311.511719 365.886719 318.160156 372.433594 324.234375 L 371.996094 314.332031 C 371.761719 308.929688 368.320312 304.703125 364.144531 304.675781 " fill-opacity="1" fill-rule="nonzero"/><path fill="#ffffff" d="M 456.675781 98.96875 C 456.753906 98.855469 456.589844 98.96875 456.675781 98.96875 " fill-opacity="1" fill-rule="nonzero"/><path fill="#ffffff" d="M 372.769531 141.8125 L 398.355469 141.976562 C 402.785156 142.007812 406.457031 137.777344 406.703125 132.363281 L 407.375 117.269531 L 408.339844 137.917969 C 408.621094 143.90625 412.65625 148.597656 417.558594 148.628906 L 446.125 148.8125 C 451.070312 148.84375 455.171875 144.121094 455.441406 138.078125 L 456.816406 107.390625 L 458.242188 137.917969 C 458.523438 143.90625 462.558594 148.597656 467.460938 148.628906 L 496.027344 148.8125 C 500.972656 148.84375 505.074219 144.121094 505.34375 138.078125 L 505.605469 132.230469 C 505.859375 137.589844 509.472656 141.78125 513.859375 141.8125 L 539.445312 141.976562 C 543.878906 142.007812 547.546875 137.777344 547.789062 132.363281 L 548.179688 123.636719 C 541.777344 117.445312 534.316406 111.730469 525.605469 106.8125 C 488.859375 85.75 468.238281 96.339844 468.238281 96.339844 C 468.238281 96.339844 460.464844 98.96875 456.675781 98.96875 C 456.59375 98.855469 456.289062 98.96875 456.203125 98.96875 C 452.417969 98.96875 444.609375 96.339844 444.609375 96.339844 C 444.609375 96.339844 423.921875 85.75 387.179688 106.8125 C 378.253906 111.851562 370.640625 117.71875 364.136719 124.085938 L 364.515625 132.222656 C 364.765625 137.582031 368.378906 141.78125 372.769531 141.8125 " fill-opacity="1" fill-rule="nonzero"/><path fill="#ffffff" d="M 362.007812 130.351562 L 362.199219 126.027344 C 357.871094 130.484375 354.054688 135.160156 350.699219 139.949219 L 353.664062 139.96875 C 358.09375 139.996094 361.765625 135.765625 362.007812 130.351562 " fill-opacity="1" fill-rule="nonzero"/><path fill="#ffffff" d="M 558.554688 139.800781 L 561.992188 139.824219 C 558.53125 134.894531 554.578125 130.089844 550.078125 125.519531 L 550.296875 130.210938 C 550.546875 135.570312 554.164062 139.773438 558.554688 139.800781 " fill-opacity="1" fill-rule="nonzero"/><g fill="#000000" fill-opacity="1"><g transform="translate(4.835469, 157.599491)"><g><path d="M 74.03125 -35.5625 C 74.03125 -19.488281 68.921875 -8.65625 58.703125 -3.0625 L 76.03125 16.890625 L 52.15625 16.890625 L 39.640625 1.109375 L 39.59375 1.0625 L 39.59375 1.015625 L 39.546875 0.96875 C 28.410156 0.96875 19.875 -2.148438 13.9375 -8.390625 C 8.007812 -14.628906 5.046875 -23.71875 5.046875 -35.65625 C 5.046875 -47.457031 7.992188 -56.472656 13.890625 -62.703125 C 19.796875 -68.929688 28.378906 -72.046875 39.640625 -72.046875 C 50.921875 -72.046875 59.472656 -68.957031 65.296875 -62.78125 C 71.117188 -56.601562 74.03125 -47.53125 74.03125 -35.5625 Z M 25.234375 -35.5625 C 25.234375 -21.84375 30.003906 -14.984375 39.546875 -14.984375 C 44.390625 -14.984375 47.984375 -16.648438 50.328125 -19.984375 C 52.679688 -23.316406 53.859375 -28.507812 53.859375 -35.5625 C 53.859375 -42.644531 52.664062 -47.875 50.28125 -51.25 C 47.90625 -54.632812 44.359375 -56.328125 39.640625 -56.328125 C 30.035156 -56.328125 25.234375 -49.40625 25.234375 -35.5625 Z M 25.234375 -35.5625 "/></g></g></g><g fill="#000000" fill-opacity="1"><g transform="translate(84.004796, 157.599491)"><g><path d="M 45.703125 0 L 43.328125 -6.84375 L 42.203125 -6.84375 C 40.617188 -4.320312 38.410156 -2.390625 35.578125 -1.046875 C 32.753906 0.296875 29.429688 0.96875 25.609375 0.96875 C 19.566406 0.96875 14.863281 -0.785156 11.5 -4.296875 C 8.132812 -7.804688 6.453125 -12.757812 6.453125 -19.15625 L 6.453125 -54.96875 L 25.421875 -54.96875 L 25.421875 -24.9375 C 25.421875 -21.34375 25.929688 -18.625 26.953125 -16.78125 C 27.972656 -14.9375 29.644531 -14.015625 31.96875 -14.015625 C 35.238281 -14.015625 37.566406 -15.300781 38.953125 -17.875 C 40.347656 -20.445312 41.046875 -24.789062 41.046875 -30.90625 L 41.046875 -54.96875 L 60.015625 -54.96875 L 60.015625 0 Z M 45.703125 0 "/></g></g></g><g fill="#000000" fill-opacity="1"><g transform="translate(150.561362, 157.599491)"><g><path d="M 33.09375 0.96875 C 23.9375 0.96875 16.828125 -1.460938 11.765625 -6.328125 C 6.703125 -11.191406 4.171875 -18.125 4.171875 -27.125 C 4.171875 -36.40625 6.515625 -43.523438 11.203125 -48.484375 C 15.890625 -53.453125 22.585938 -55.9375 31.296875 -55.9375 C 39.578125 -55.9375 45.972656 -53.773438 50.484375 -49.453125 C 54.992188 -45.140625 57.25 -38.925781 57.25 -30.8125 L 57.25 -22.359375 L 23.328125 -22.359375 C 23.460938 -19.285156 24.585938 -16.875 26.703125 -15.125 C 28.828125 -13.382812 31.71875 -12.515625 35.375 -12.515625 C 38.695312 -12.515625 41.757812 -12.828125 44.5625 -13.453125 C 47.363281 -14.085938 50.394531 -15.164062 53.65625 -16.6875 L 53.65625 -3.0625 C 50.675781 -1.539062 47.601562 -0.488281 44.4375 0.09375 C 41.269531 0.675781 37.488281 0.96875 33.09375 0.96875 Z M 31.96875 -43.03125 C 29.738281 -43.03125 27.867188 -42.328125 26.359375 -40.921875 C 24.859375 -39.515625 23.976562 -37.304688 23.71875 -34.296875 L 40.03125 -34.296875 C 39.957031 -36.953125 39.203125 -39.070312 37.765625 -40.65625 C 36.328125 -42.238281 34.394531 -43.03125 31.96875 -43.03125 Z M 31.96875 -43.03125 "/></g></g></g><g fill="#000000" fill-opacity="1"><g transform="translate(211.975803, 157.599491)"><g><path d="M 74.03125 0 L 74.03125 -29.890625 C 74.03125 -33.609375 73.519531 -36.394531 72.5 -38.25 C 71.488281 -40.113281 69.878906 -41.046875 67.671875 -41.046875 C 64.765625 -41.046875 62.628906 -39.800781 61.265625 -37.3125 C 59.910156 -34.820312 59.234375 -30.921875 59.234375 -25.609375 L 59.234375 0 L 40.21875 0 L 40.21875 -29.890625 C 40.21875 -33.609375 39.734375 -36.394531 38.765625 -38.25 C 37.796875 -40.113281 36.226562 -41.046875 34.0625 -41.046875 C 31.082031 -41.046875 28.910156 -39.71875 27.546875 -37.0625 C 26.191406 -34.414062 25.515625 -30.082031 25.515625 -24.0625 L 25.515625 0 L 6.546875 0 L 6.546875 -54.96875 L 20.859375 -54.96875 L 23.234375 -48.171875 L 24.359375 -48.171875 C 25.804688 -50.691406 27.910156 -52.613281 30.671875 -53.9375 C 33.441406 -55.269531 36.59375 -55.9375 40.125 -55.9375 C 48.050781 -55.9375 53.613281 -53.523438 56.8125 -48.703125 L 58.3125 -48.703125 C 59.863281 -50.972656 62.019531 -52.742188 64.78125 -54.015625 C 67.550781 -55.296875 70.601562 -55.9375 73.9375 -55.9375 C 80.4375 -55.9375 85.238281 -54.269531 88.34375 -50.9375 C 91.445312 -47.601562 93 -42.539062 93 -35.75 L 93 0 Z M 74.03125 0 "/></g></g></g><g fill="#000000" fill-opacity="1"><g transform="translate(104.870383, 263.166524)"><g><path d="M 33.46875 -14.015625 C 36.03125 -14.015625 39.085938 -14.644531 42.640625 -15.90625 L 42.640625 -2.09375 C 40.085938 -0.988281 37.65625 -0.203125 35.34375 0.265625 C 33.03125 0.734375 30.320312 0.96875 27.21875 0.96875 C 20.84375 0.96875 16.25 -0.585938 13.4375 -3.703125 C 10.625 -6.828125 9.21875 -11.625 9.21875 -18.09375 L 9.21875 -40.75 L 2.578125 -40.75 L 2.578125 -48.46875 L 11.015625 -54.4375 L 15.90625 -65.984375 L 28.328125 -65.984375 L 28.328125 -54.96875 L 41.8125 -54.96875 L 41.8125 -40.75 L 28.328125 -40.75 L 28.328125 -19.359375 C 28.328125 -15.796875 30.039062 -14.015625 33.46875 -14.015625 Z M 33.46875 -14.015625 "/></g></g></g><g fill="#000000" fill-opacity="1"><g transform="translate(150.567384, 263.166524)"><g><path d="M 33.09375 0.96875 C 23.9375 0.96875 16.828125 -1.460938 11.765625 -6.328125 C 6.703125 -11.191406 4.171875 -18.125 4.171875 -27.125 C 4.171875 -36.40625 6.515625 -43.523438 11.203125 -48.484375 C 15.890625 -53.453125 22.585938 -55.9375 31.296875 -55.9375 C 39.578125 -55.9375 45.972656 -53.773438 50.484375 -49.453125 C 54.992188 -45.140625 57.25 -38.925781 57.25 -30.8125 L 57.25 -22.359375 L 23.328125 -22.359375 C 23.460938 -19.285156 24.585938 -16.875 26.703125 -15.125 C 28.828125 -13.382812 31.71875 -12.515625 35.375 -12.515625 C 38.695312 -12.515625 41.757812 -12.828125 44.5625 -13.453125 C 47.363281 -14.085938 50.394531 -15.164062 53.65625 -16.6875 L 53.65625 -3.0625 C 50.675781 -1.539062 47.601562 -0.488281 44.4375 0.09375 C 41.269531 0.675781 37.488281 0.96875 33.09375 0.96875 Z M 31.96875 -43.03125 C 29.738281 -43.03125 27.867188 -42.328125 26.359375 -40.921875 C 24.859375 -39.515625 23.976562 -37.304688 23.71875 -34.296875 L 40.03125 -34.296875 C 39.957031 -36.953125 39.203125 -39.070312 37.765625 -40.65625 C 36.328125 -42.238281 34.394531 -43.03125 31.96875 -43.03125 Z M 31.96875 -43.03125 "/></g></g></g><g fill="#000000" fill-opacity="1"><g transform="translate(211.981825, 263.166524)"><g><path d="M 74.03125 0 L 74.03125 -29.890625 C 74.03125 -33.609375 73.519531 -36.394531 72.5 -38.25 C 71.488281 -40.113281 69.878906 -41.046875 67.671875 -41.046875 C 64.765625 -41.046875 62.628906 -39.800781 61.265625 -37.3125 C 59.910156 -34.820312 59.234375 -30.921875 59.234375 -25.609375 L 59.234375 0 L 40.21875 0 L 40.21875 -29.890625 C 40.21875 -33.609375 39.734375 -36.394531 38.765625 -38.25 C 37.796875 -40.113281 36.226562 -41.046875 34.0625 -41.046875 C 31.082031 -41.046875 28.910156 -39.71875 27.546875 -37.0625 C 26.191406 -34.414062 25.515625 -30.082031 25.515625 -24.0625 L 25.515625 0 L 6.546875 0 L 6.546875 -54.96875 L 20.859375 -54.96875 L 23.234375 -48.171875 L 24.359375 -48.171875 C 25.804688 -50.691406 27.910156 -52.613281 30.671875 -53.9375 C 33.441406 -55.269531 36.59375 -55.9375 40.125 -55.9375 C 48.050781 -55.9375 53.613281 -53.523438 56.8125 -48.703125 L 58.3125 -48.703125 C 59.863281 -50.972656 62.019531 -52.742188 64.78125 -54.015625 C 67.550781 -55.296875 70.601562 -55.9375 73.9375 -55.9375 C 80.4375 -55.9375 85.238281 -54.269531 88.34375 -50.9375 C 91.445312 -47.601562 93 -42.539062 93 -35.75 L 93 0 Z M 74.03125 0 "/></g></g></g><g fill="#000000" fill-opacity="1"><g transform="translate(68.683222, 368.733556)"><g><path d="M 40.125 -55.9375 C 46.101562 -55.9375 50.847656 -53.425781 54.359375 -48.40625 C 57.867188 -43.394531 59.625 -36.460938 59.625 -27.609375 C 59.625 -18.679688 57.851562 -11.6875 54.3125 -6.625 C 50.769531 -1.5625 45.847656 0.96875 39.546875 0.96875 C 37.503906 0.96875 35.691406 0.75 34.109375 0.3125 C 32.523438 -0.125 31.109375 -0.726562 29.859375 -1.5 C 28.617188 -2.28125 27.171875 -3.578125 25.515625 -5.390625 L 24.359375 -5.390625 L 21.34375 0 L 6.546875 0 L 6.546875 -75.484375 L 25.515625 -75.484375 L 25.515625 -58.40625 C 25.515625 -56.375 25.289062 -52.867188 24.84375 -47.890625 L 25.515625 -47.890625 C 27.359375 -50.734375 29.484375 -52.785156 31.890625 -54.046875 C 34.304688 -55.304688 37.050781 -55.9375 40.125 -55.9375 Z M 33.1875 -41.046875 C 30.53125 -41.046875 28.585938 -40.125 27.359375 -38.28125 C 26.128906 -36.4375 25.515625 -33.539062 25.515625 -29.59375 L 25.515625 -26.921875 C 25.515625 -22.429688 26.128906 -19.207031 27.359375 -17.25 C 28.585938 -15.289062 30.59375 -14.3125 33.375 -14.3125 C 35.601562 -14.3125 37.316406 -15.453125 38.515625 -17.734375 C 39.710938 -20.015625 40.3125 -23.367188 40.3125 -27.796875 C 40.3125 -36.628906 37.9375 -41.046875 33.1875 -41.046875 Z M 33.1875 -41.046875 "/></g></g></g><g fill="#000000" fill-opacity="1"><g transform="translate(132.571705, 368.733556)"><g><path d="M 59.046875 -27.609375 C 59.046875 -18.617188 56.625 -11.609375 51.78125 -6.578125 C 46.945312 -1.546875 40.179688 0.96875 31.484375 0.96875 C 23.140625 0.96875 16.5 -1.597656 11.5625 -6.734375 C 6.632812 -11.878906 4.171875 -18.835938 4.171875 -27.609375 C 4.171875 -36.566406 6.585938 -43.523438 11.421875 -48.484375 C 16.253906 -53.453125 23.039062 -55.9375 31.78125 -55.9375 C 37.175781 -55.9375 41.941406 -54.785156 46.078125 -52.484375 C 50.222656 -50.191406 53.421875 -46.898438 55.671875 -42.609375 C 57.921875 -38.328125 59.046875 -33.328125 59.046875 -27.609375 Z M 23.4375 -27.609375 C 23.4375 -22.878906 24.066406 -19.273438 25.328125 -16.796875 C 26.585938 -14.328125 28.707031 -13.09375 31.6875 -13.09375 C 34.625 -13.09375 36.695312 -14.328125 37.90625 -16.796875 C 39.125 -19.273438 39.734375 -22.878906 39.734375 -27.609375 C 39.734375 -32.296875 39.117188 -35.832031 37.890625 -38.21875 C 36.660156 -40.613281 34.554688 -41.8125 31.578125 -41.8125 C 28.671875 -41.8125 26.585938 -40.625 25.328125 -38.25 C 24.066406 -35.875 23.4375 -32.328125 23.4375 -27.609375 Z M 23.4375 -27.609375 "/></g></g></g><g fill="#000000" fill-opacity="1"><g transform="translate(195.87806, 368.733556)"><g><path d="M 31.578125 0.96875 C 22.585938 0.96875 15.769531 -1.453125 11.125 -6.296875 C 6.488281 -11.148438 4.171875 -18.125 4.171875 -27.21875 C 4.171875 -36.332031 6.675781 -43.394531 11.6875 -48.40625 C 16.707031 -53.425781 23.84375 -55.9375 33.09375 -55.9375 C 39.457031 -55.9375 45.457031 -54.546875 51.09375 -51.765625 L 45.5 -37.75 C 43.207031 -38.75 41.085938 -39.546875 39.140625 -40.140625 C 37.203125 -40.742188 35.1875 -41.046875 33.09375 -41.046875 C 30.019531 -41.046875 27.640625 -39.847656 25.953125 -37.453125 C 24.273438 -35.054688 23.4375 -31.675781 23.4375 -27.3125 C 23.4375 -18.519531 26.6875 -14.125 33.1875 -14.125 C 38.75 -14.125 44.082031 -15.738281 49.1875 -18.96875 L 49.1875 -3.875 C 44.3125 -0.644531 38.441406 0.96875 31.578125 0.96875 Z M 31.578125 0.96875 "/></g></g></g><g fill="#000000" fill-opacity="1"><g transform="translate(249.433781, 368.733556)"><g><path d="M 42.40625 0 L 38.765625 -7.28125 L 38.375 -7.28125 C 35.820312 -4.101562 33.21875 -1.929688 30.5625 -0.765625 C 27.914062 0.390625 24.488281 0.96875 20.28125 0.96875 C 15.101562 0.96875 11.023438 -0.582031 8.046875 -3.6875 C 5.078125 -6.789062 3.59375 -11.15625 3.59375 -16.78125 C 3.59375 -22.632812 5.628906 -26.992188 9.703125 -29.859375 C 13.773438 -32.722656 19.675781 -34.332031 27.40625 -34.6875 L 36.578125 -34.984375 L 36.578125 -35.75 C 36.578125 -40.28125 34.347656 -42.546875 29.890625 -42.546875 C 25.878906 -42.546875 20.785156 -41.1875 14.609375 -38.46875 L 9.125 -50.984375 C 15.53125 -54.285156 23.613281 -55.9375 33.375 -55.9375 C 40.425781 -55.9375 45.882812 -54.1875 49.75 -50.6875 C 53.613281 -47.195312 55.546875 -42.316406 55.546875 -36.046875 L 55.546875 0 Z M 28.328125 -12.421875 C 30.628906 -12.421875 32.59375 -13.144531 34.21875 -14.59375 C 35.851562 -16.050781 36.671875 -17.945312 36.671875 -20.28125 L 36.671875 -24.546875 L 32.3125 -24.359375 C 26.070312 -24.128906 22.953125 -21.832031 22.953125 -17.46875 C 22.953125 -14.101562 24.742188 -12.421875 28.328125 -12.421875 Z M 28.328125 -12.421875 "/></g></g></g></svg>