<svg xmlns="http://www.w3.org/2000/svg" xmlns:xlink="http://www.w3.org/1999/xlink" width="500" zoomAndPan="magnify" viewBox="0 0 375 374.999991" height="500" preserveAspectRatio="xMidYMid meet" version="1.0"><defs><clipPath id="id1"><path d="M 24.59375 0 L 337.679688 0 L 337.679688 375 L 24.59375 375 Z M 24.59375 0 " clip-rule="nonzero"/></clipPath></defs><g clip-path="url(#id1)"><path fill="#f40018" d="M 264.386719 16.070312 C 220.195312 -14.414062 195.394531 7.835938 195.394531 7.835938 C 195.394531 7.835938 186.039062 12.796875 181.484375 12.796875 C 181.378906 12.796875 181.484375 12.796875 181.136719 12.855469 C 180.917969 12.796875 181.019531 12.796875 180.917969 12.796875 C 176.359375 12.796875 166.96875 7.835938 166.96875 7.835938 C 166.96875 7.835938 142.085938 -14.414062 97.890625 16.070312 C 20.902344 68.398438 24.625 182.347656 24.625 182.347656 L 24.625 182.527344 C 24.625 182.527344 34.363281 375.035156 181.132812 375.035156 C 333.230469 375.035156 337.648438 182.527344 337.648438 182.527344 L 337.648438 182.347656 C 337.648438 182.347656 341.382812 68.398438 264.386719 16.070312 " fill-opacity="1" fill-rule="nonzero"/></g><path fill="#8f000f" d="M 260.1875 52.308594 C 218.222656 28.261719 194.671875 40.351562 194.671875 40.351562 C 194.671875 40.351562 185.792969 43.355469 181.464844 43.355469 C 181.367188 43.355469 181.554688 43.222656 181.464844 43.355469 C 181.371094 43.222656 181.023438 43.355469 180.925781 43.355469 C 176.601562 43.355469 167.683594 40.351562 167.683594 40.351562 C 167.683594 40.351562 144.058594 28.261719 102.09375 52.308594 C 28.988281 93.574219 32.523438 183.4375 32.523438 183.4375 L 32.527344 183.582031 C 32.527344 183.582031 41.773438 335.402344 181.132812 335.402344 C 325.550781 335.402344 329.75 183.582031 329.75 183.582031 L 329.75 183.4375 C 329.75 183.4375 333.292969 93.574219 260.1875 52.308594 " fill-opacity="1" fill-rule="nonzero"/><path fill="#38000f" d="M 269.457031 219.320312 C 269.457031 170.246094 229.621094 130.457031 180.484375 130.457031 C 131.347656 130.457031 91.515625 170.246094 91.515625 219.320312 C 91.515625 268.402344 131.347656 308.183594 180.484375 308.183594 C 229.621094 308.183594 269.457031 268.402344 269.457031 219.320312 " fill-opacity="1" fill-rule="nonzero"/><path fill="#8f000f" d="M 191.914062 134.632812 C 192.222656 133.101562 192.667969 131.46875 193.28125 129.742188 L 173.296875 129.742188 C 173.839844 131.269531 174.246094 132.722656 174.546875 134.097656 C 175.945312 140.554688 173.929688 147.203125 169.699219 152.113281 C 166.53125 155.785156 164.710938 160.765625 165.066406 166.195312 C 165.679688 175.597656 172.972656 183.21875 181.921875 183.8125 C 192.425781 184.5 201.144531 175.75 201.144531 164.855469 C 201.144531 160.035156 199.4375 155.640625 196.621094 152.292969 C 192.542969 147.445312 190.644531 140.964844 191.914062 134.632812 " fill-opacity="1" fill-rule="nonzero"/><path fill="#fb262b" d="M 184.515625 240.703125 C 179.015625 242.015625 174.230469 240.582031 174.230469 240.582031 C 93.394531 228.636719 68.519531 270.683594 68.519531 270.683594 L 64.324219 275.917969 C 85.789062 307.671875 121.578125 335.402344 181.132812 335.402344 C 240.757812 335.402344 276.480469 309.523438 297.875 279.132812 C 296.890625 278.0625 295.789062 276.886719 294.53125 275.578125 C 264.035156 232.21875 190.015625 239.390625 184.515625 240.703125 " fill-opacity="1" fill-rule="nonzero"/><path fill="#ffffff" d="M 270.527344 276.332031 L 242.722656 276.136719 C 237.910156 276.105469 233.921875 280.96875 233.65625 287.1875 L 232.230469 320.921875 L 230.664062 285.5 C 230.390625 279.339844 226.464844 274.515625 221.695312 274.480469 L 193.890625 274.292969 C 189.078125 274.257812 185.085938 279.117188 184.824219 285.335938 L 183.488281 316.917969 L 182.097656 285.5 C 181.824219 279.339844 177.898438 274.515625 173.128906 274.480469 L 145.324219 274.292969 C 140.511719 274.257812 136.519531 279.117188 136.257812 285.335938 L 134.777344 320.269531 L 133.320312 287.351562 C 133.054688 281.191406 129.121094 276.363281 124.351562 276.332031 L 96.550781 276.136719 C 91.734375 276.105469 87.75 280.96875 87.480469 287.1875 L 86.855469 301.964844 C 108.5625 321.433594 138.859375 335.402344 181.132812 335.402344 C 226.578125 335.402344 258.132812 320.371094 280.046875 299.761719 L 279.5 287.351562 C 279.226562 281.191406 275.296875 276.363281 270.527344 276.332031 " fill-opacity="1" fill-rule="nonzero"/><path fill="#ffffff" d="M 282.222656 289.496094 L 281.863281 298.023438 C 288.132812 291.890625 293.582031 285.304688 298.320312 278.5 L 291.289062 278.449219 C 286.476562 278.417969 282.484375 283.273438 282.222656 289.496094 " fill-opacity="1" fill-rule="nonzero"/><path fill="#ffffff" d="M 75.789062 278.175781 L 65.832031 278.109375 C 71.351562 285.980469 77.78125 293.570312 85.257812 300.503906 L 84.753906 289.199219 C 84.488281 283.035156 80.554688 278.210938 75.789062 278.175781 " fill-opacity="1" fill-rule="nonzero"/><path fill="#ffffff" d="M 181.464844 43.355469 C 181.554688 43.222656 181.367188 43.355469 181.464844 43.355469 " fill-opacity="1" fill-rule="nonzero"/><path fill="#ffffff" d="M 85.640625 92.261719 L 114.859375 92.449219 C 119.917969 92.484375 124.113281 87.65625 124.390625 81.476562 L 125.164062 64.242188 L 126.261719 87.816406 C 126.582031 94.652344 131.195312 100.003906 136.789062 100.042969 L 169.417969 100.25 C 175.066406 100.289062 179.746094 94.898438 180.054688 88 L 181.625 52.96875 L 183.253906 87.816406 C 183.574219 94.652344 188.183594 100.003906 193.78125 100.042969 L 226.410156 100.25 C 232.058594 100.289062 236.738281 94.898438 237.046875 88 L 237.347656 81.320312 C 237.636719 87.4375 241.761719 92.226562 246.773438 92.261719 L 275.992188 92.449219 C 281.054688 92.484375 285.246094 87.65625 285.523438 81.476562 L 285.96875 71.511719 C 278.65625 64.445312 270.136719 57.921875 260.1875 52.308594 C 218.222656 28.261719 194.671875 40.351562 194.671875 40.351562 C 194.671875 40.351562 185.792969 43.355469 181.464844 43.355469 C 181.371094 43.222656 181.023438 43.355469 180.925781 43.355469 C 176.601562 43.355469 167.683594 40.351562 167.683594 40.351562 C 167.683594 40.351562 144.058594 28.261719 102.09375 52.308594 C 91.902344 58.058594 83.207031 64.757812 75.777344 72.023438 L 76.214844 81.3125 C 76.496094 87.433594 80.625 92.226562 85.640625 92.261719 " fill-opacity="1" fill-rule="nonzero"/><path fill="#ffffff" d="M 73.347656 79.179688 L 73.566406 74.242188 C 68.625 79.328125 64.265625 84.667969 60.433594 90.132812 L 63.820312 90.15625 C 68.878906 90.1875 73.070312 85.359375 73.347656 79.179688 " fill-opacity="1" fill-rule="nonzero"/><path fill="#ffffff" d="M 297.816406 89.964844 L 301.742188 89.988281 C 297.789062 84.363281 293.273438 78.878906 288.136719 73.664062 L 288.386719 79.015625 C 288.671875 85.136719 292.800781 89.933594 297.816406 89.964844 " fill-opacity="1" fill-rule="nonzero"/></svg>